<svg id="Gradient" height="512" viewBox="0 0 512 512" width="512" xmlns="http://www.w3.org/2000/svg" xmlns:xlink="http://www.w3.org/1999/xlink"><linearGradient id="linear-gradient" gradientUnits="userSpaceOnUse" x1="256" x2="256" y1="496" y2="16"><stop offset="0" stop-color="#12c2e9"/><stop offset=".5" stop-color="#c471ed"/><stop offset="1" stop-color="#f64f59"/></linearGradient><path d="m336.02 384a32.173 32.173 0 0 1 -25.62-12.8 32 32 0 0 1 6.4-44.8l51.2-38.4h-208a32 32 0 0 1 0-64h208l-51.2-38.4a32 32 0 0 1 38.4-51.2l128 96.005a32 32 0 0 1 0 51.2l-128 96a31.736 31.736 0 0 1 -19.18 6.395zm-176.02-144.008a16 16 0 0 0 0 32h232a8 8 0 0 1 4.8 14.4l-70.4 52.8a16 16 0 1 0 19.2 25.6l128-96a16 16 0 0 0 0-25.6l-128-96a16 16 0 0 0 -19.2 25.6l70.4 52.8a8 8 0 0 1 -4.8 14.4zm64 256.008h-176a32.036 32.036 0 0 1 -32-32v-416a32.036 32.036 0 0 1 32-32h176a32.036 32.036 0 0 1 32 32v96a32 32 0 0 1 -64 0v-64h-112v352h112v-64a32 32 0 0 1 64 0v96a32.036 32.036 0 0 1 -32 32zm-176-464a16.019 16.019 0 0 0 -16 16v416a16.019 16.019 0 0 0 16 16h176a16.019 16.019 0 0 0 16-16v-96a16 16 0 0 0 -32 0v72a8 8 0 0 1 -8 8h-128a8 8 0 0 1 -8-8v-368a8 8 0 0 1 8-8h128a8 8 0 0 1 8 8v72a16 16 0 0 0 32 0v-96a16.019 16.019 0 0 0 -16-16z" fill="url(#linear-gradient)"/></svg>